<svg width="24" height="24" fill="#0052CC" viewBox="0 0 512 512" xmlns="http://www.w3.org/2000/svg">

 <g>
  <title>background</title>
  <rect fill="none" id="canvas_background" height="402" width="582" y="-1" x="-1"/>
 </g>
 <g>
  <title>Layer 1</title>
  <g id="svg_1">
   <g id="svg_2">
    <path id="svg_3" d="m504.981,213.858388c-6.048,-5.163 -14.583,-6.251 -21.736,-2.769l-109.444,53.28l-102.692,-118.402c-3.798,-4.38 -9.311,-6.896 -15.109,-6.896c-5.798,0 -11.31,2.516 -15.109,6.896l-102.692,118.401l-109.444,-53.28c-7.153,-3.481 -15.687,-2.394 -21.737,2.769c-6.05,5.163 -8.466,13.421 -6.153,21.031l76,250c2.561,8.425 10.33,14.183 19.135,14.183l320,0c8.804,0 16.574,-5.758 19.134,-14.182l76,-250c2.314,-7.61 -0.102,-15.868 -6.153,-21.031zm-103.806,245.213l-290.352,0l-58.351,-191.948l82.022,39.931c8.144,3.964 17.93,1.962 23.863,-4.878l97.643,-112.58l97.644,112.58c5.932,6.841 15.721,8.841 23.862,4.878l82.022,-39.931l-58.353,191.948z"/>
   </g>
  </g>
  <g stroke="null" id="svg_10">
   <g stroke="null" transform="matrix(1.8326051624997797,0,0,1.8326051624997797,12.451612109829924,22.32042396199139) " id="svg_7">
    <g stroke="null" id="svg_8">
     <path stroke="null" id="svg_9" d="m8.179253,23.694709a14.246,14.246 0 0 1 14.131,14.322a2,2 0 0 0 4,0a14.246,14.246 0 0 1 14.13,-14.326a2,2 0 0 0 0,-4a14.245,14.245 0 0 1 -14.13,-14.326a2,2 0 0 0 -4,0a14.245,14.245 0 0 1 -14.131,14.33a2,2 0 1 0 0,4z"/>
    </g>
   </g>
  </g>
  <g stroke="null" id="svg_14">
   <g stroke="null" transform="matrix(1.8326051624997797,0,0,1.8326051624997797,12.451612109829924,22.32042396199139) " id="svg_13">
    <g stroke="null" id="svg_12">
     <path stroke="null" id="svg_11" d="m42.010871,97.906007a14.246,14.246 0 0 1 14.131,14.322a2,2 0 0 0 4,0a14.246,14.246 0 0 1 14.13,-14.326a2,2 0 0 0 0,-4a14.245,14.245 0 0 1 -14.13,-14.326a2,2 0 0 0 -4,0a14.245,14.245 0 0 1 -14.131,14.33a2,2 0 1 0 0,4z"/>
    </g>
   </g>
  </g>
  <g stroke="null" id="svg_18">
   <g stroke="null" transform="matrix(1.8326051624997797,0,0,1.8326051624997797,12.451612109829924,22.32042396199139) " id="svg_17">
    <g stroke="null" id="svg_16">
     <path stroke="null" id="svg_15" d="m78.570853,47.704251a14.246,14.246 0 0 1 14.131,14.322a2,2 0 0 0 4,0a14.246,14.246 0 0 1 14.13,-14.326a2,2 0 0 0 0,-4a14.245,14.245 0 0 1 -14.13,-14.326a2,2 0 0 0 -4,0a14.245,14.245 0 0 1 -14.131,14.33a2,2 0 1 0 0,4z"/>
    </g>
   </g>
  </g>
  <g stroke="null" id="svg_22">
   <g stroke="null" transform="matrix(1.8326051624997797,0,0,1.8326051624997797,12.451612109829924,22.32042396199139) " id="svg_21">
    <g stroke="null" id="svg_20">
     <path stroke="null" id="svg_19" d="m157.147516,68.439757a14.246,14.246 0 0 1 14.131,14.322a2,2 0 0 0 4,0a14.246,14.246 0 0 1 14.13,-14.326a2,2 0 0 0 0,-4a14.245,14.245 0 0 1 -14.13,-14.326a2,2 0 0 0 -4,0a14.245,14.245 0 0 1 -14.131,14.33a2,2 0 1 0 0,4z"/>
    </g>
   </g>
  </g>
  <g stroke="null" id="svg_26">
   <g stroke="null" transform="matrix(1.8326051624997797,0,0,1.8326051624997797,12.451612109829924,22.32042396199139) " id="svg_25">
    <g stroke="null" id="svg_24">
     <path stroke="null" id="svg_23" d="m194.253167,26.968743a14.246,14.246 0 0 1 14.131,14.322a2,2 0 0 0 4,0a14.246,14.246 0 0 1 14.13,-14.326a2,2 0 0 0 0,-4a14.245,14.245 0 0 1 -14.13,-14.326a2,2 0 0 0 -4,0a14.245,14.245 0 0 1 -14.131,14.33a2,2 0 1 0 0,4z"/>
    </g>
   </g>
  </g>
  <g stroke="null" id="svg_30">
   <g stroke="null" transform="matrix(1.8326051624997797,0,0,1.8326051624997797,12.451612109829924,22.32042396199139) " id="svg_29">
    <g stroke="null" id="svg_28">
     <path stroke="null" id="svg_27" d="m221.536721,89.175267a14.246,14.246 0 0 1 14.131,14.322a2,2 0 0 0 4,0a14.246,14.246 0 0 1 14.13,-14.326a2,2 0 0 0 0,-4a14.245,14.245 0 0 1 -14.13,-14.326a2,2 0 0 0 -4,0a14.245,14.245 0 0 1 -14.131,14.33a2,2 0 1 0 0,4z"/>
    </g>
   </g>
  </g>
  <rect id="svg_31" height="87" width="395" y="300.5" x="62.5" />
  <rect id="svg_32" height="87" width="341.000002" y="378.5" x="87.5" />
  <path d="m362.5,302.5c0,-1 0.046692,-0.965393 3,-5c5.081055,-6.941406 7.718994,-10.310211 11,-13c5.57666,-4.571747 11,-7 15,-9c6,-3 11.305389,-4.361664 16,-7c4.358826,-2.449615 7,-5 9,-6c4,-2 6.132996,-3.569519 10,-5c2.097168,-0.775787 4.152252,-1.234619 6,-2c1.306549,-0.541199 2.796997,-1.2565 4,-2c2.690002,-1.662506 6.038727,-1.519455 9,-2c3.121429,-0.506546 4.823761,-2.486252 7,-3c0.973236,-0.229752 1.907776,-1.496231 6,-2c0.992493,-0.122177 3,-2 4,-2c1,0 2,-1 3,-1l1,0" id="svg_36" />
  <path d="m406.5,325.5c1,0 2,0 3,0c4,0 11,0 19,0c9,0 14.925781,-1.497559 20,-2c2.985413,-0.295624 7,-2 9,-3c4,-2 6.413605,-3.625305 10,-8c2.285889,-2.78833 6.07193,-6.953278 8,-10c3.118103,-4.927216 5.981628,-6.712006 7,-12c0.378204,-1.963898 0.679626,-6.025818 1,-8c0.506531,-3.121429 1.486267,-5.823761 2,-8c0.459503,-1.946503 0.540497,-4.053497 1,-6c0.513733,-2.176239 2.493469,-3.878571 3,-7c0.320374,-1.974182 0,-3 0,-5c0,-2 0.458801,-2.693436 1,-4c0.38269,-0.923874 0,-2 0,-3c0,0 0.306549,-0.458801 -1,-1c-0.923889,-0.38269 -3.805664,-2.44841 -8,-4c-3.867004,-1.430496 -5,-1 -10,-1c-6,0 -13.072174,1.243576 -17,2c-5.287994,1.018372 -13.07843,4.789856 -16,6c-2.065857,0.855713 -6.934143,4.144287 -9,5c-2.92157,1.210144 -6.186005,3.692535 -8,5c-2.294525,1.653809 -3.812653,3.206818 -6,5c-2.78833,2.285889 -5.902832,4.224213 -8,5c-3.867004,1.430481 -8,3 -10,4c-2,1 -4.21167,1.714111 -7,4c-2.187347,1.793182 -5,4 -8,7c-3,3 -6.519287,5.558197 -9,9c-2.614899,3.627991 -4.496216,6.907776 -5,11c-0.244354,1.985016 0,4 0,6c0,1 0.474274,2.149353 1,3c1.175568,1.9021 5.74707,3.617004 10,5c5.784607,1.881073 12.946716,2.498749 20,3c8.977356,0.638 12,0 14,0l5,1l2,0l1,0" id="svg_37" />
  <path d="m51.5,249.5c-1,0 -1.292892,-0.707108 -2,0c-0.707108,0.707108 -0.292892,1.292892 -1,2c-0.707108,0.707108 -1.458805,0.693436 -2,2c-0.382683,0.923874 -0.617317,2.076126 -1,3c-0.541195,1.306549 -0.714119,3.21167 -3,6c-0.896595,1.093658 -2.288589,2.868286 -4,7c-1.210152,2.92157 -2.415897,4.761078 -4,8c-1.389351,2.840729 -2.486256,4.823761 -3,7c-0.229753,0.973236 -1,3 -1,5c0,3 -1.159136,4.171631 0,8c1.044832,3.450836 2,4 4,7c2,3 4.323669,6.520172 6,8c2.703003,2.386169 5.90633,6.103394 7,7c2.788326,2.285889 6.085815,3.420441 8,4c3.450844,1.04483 6.041325,2.847229 10,4c3.036163,0.884125 4.823746,2.486267 7,3c1.946495,0.459503 2.925797,1.497559 8,2c1.990265,0.197083 6,0 11,0c4,0 7,0 11,0c2,0 7.054131,-0.432678 10,-1c5.287994,-1.018372 8.215401,-2.118927 14,-4c2.126465,-0.691498 5.186005,-0.692535 7,-2c1.147263,-0.826904 1.173096,-1.852722 2,-3c1.307449,-1.813995 1.486252,-2.823761 2,-5c0.459503,-1.946503 0.486252,-2.823761 1,-5c0.229752,-0.973236 0,-3 0,-4c0,-1 0,-2 0,-3c0,-1 0.765366,-2.152252 0,-4c-0.541199,-1.306549 -2,-3 -3,-4c-1,-1 -2.714127,-3.21167 -5,-6c-0.896591,-1.093658 -2.386871,-3.917603 -5,-5c-0.923882,-0.38269 -3,-3 -4,-4c-1,-1 -1.693436,-2.458801 -3,-3c-0.923882,-0.38269 -2,0 -3,-1c-1,-1 -2.85273,-2.173096 -4,-3c-1.813995,-1.307465 -3,-1 -4,-2c-1,-1 -3.823746,-2.486267 -6,-3c-0.973251,-0.229767 -2.159279,-0.610657 -5,-2c-3.238922,-1.584106 -4.647499,-2.972504 -9,-4c-1.946495,-0.459503 -5.025826,-0.679626 -7,-1c-3.121445,-0.506531 -5,-2 -7,-2c-1,0 -3,-1 -3,-1c-1,0 -1.152245,-0.234619 -3,-1c-1.306564,-0.541199 -1.823746,-1.486267 -4,-2c-0.973248,-0.229767 -2.026752,-0.770233 -3,-1c-2.17625,-0.513748 -4,-2 -6,-3c-2,-1 -3.82375,-1.486252 -6,-2c-0.973248,-0.229752 -2,0 -3,-1l-2,0l-1,-1" id="svg_38" />
  <path d="m133.5,312.5c1,-1 1,-2 2,-3c3,-3 4.549011,-4.606415 8,-10c1.205139,-1.883514 5.190277,-6.881531 7,-10c2.24469,-3.867981 3.385101,-6.372009 6,-10c1.653809,-2.294525 3.877655,-6.06601 5,-8c1.809723,-3.118469 2.714127,-4.21167 5,-7c1.793198,-2.187347 3.346191,-3.705475 5,-6c1.307449,-1.813995 1.877655,-4.06601 3,-6c1.809723,-3.118484 3.190277,-3.881516 5,-7c1.122345,-1.93399 2.173096,-4.852737 3,-6c2.614899,-3.627991 2.610641,-5.159271 4,-8c1.584106,-3.238922 2,-4 4,-6c1,-1 2,-4 3,-6c1,-2 1.714127,-4.21167 4,-7c0.896591,-1.093674 1.61731,-3.076126 2,-4c1.082397,-2.613129 2.07341,-2.931625 3,-4c3.276016,-3.777267 3.692551,-5.186005 5,-7c0.826904,-1.147263 2,-2 3,-3c2,-2 2,-3 4,-5c1,-1 2,-2 4,-4c1,-1 2,-2 3,-3c2,-2 2.386871,-3.917603 5,-5c0.923874,-0.38269 3,-2 4,-3c1,-1 2.474274,-3.149353 3,-4c1.175568,-1.902115 3,-2 4,-3c1,-1 1.076126,-1.61731 2,-2c1.306564,-0.541199 1.292892,-1.292892 2,-2c1.414215,-1.414215 0.61731,-2.076126 1,-3c0.541199,-1.306564 2.292892,-1.292892 3,-2c0.707108,-0.707108 1,-2 2,-3c0,0 1,0 1,1c0,0 0,1 0,1c1,0 1,1 1,1c0,1 1,2 1,2c1,0 1,1 1,1c1,1 1,2 2,2c0,0 0.292892,0.292892 1,1c0.707108,0.707108 1.186005,0.692551 3,2c1.147278,0.826904 2,1 2,2c0,1 2,2 3,3c1,1 1.693451,1.458801 3,2c0.923889,0.38269 1.076111,0.61731 2,1c1.306549,0.541199 1.692535,1.186005 3,3c0.826904,1.147263 2.931641,2.07341 4,3c3.777283,3.276016 4.705475,4.346191 7,6c1.813995,1.307449 2.292908,1.292892 3,2c0.707092,0.707108 1.474274,2.149353 2,3c1.175568,1.902115 3,2 4,3c1,1 1.474274,1.149353 2,2c1.175568,1.902115 2.692535,2.186005 4,4c0.826904,1.147263 4,3 5,4c2,2 3.222717,3.723984 7,7c1.068359,0.92659 4.186005,3.692551 6,5c3.441803,2.480713 3.714111,4.21167 6,7c2.689789,3.281006 5,5 7,7c1,1 2.103394,2.906326 3,4c2.285889,2.78833 3,4 5,6c1,1 2.056274,3.236649 3,5c1.701294,3.178925 5,5 6,7c1,2 3.298706,2.821075 5,6c0.471863,0.881683 2,3 3,4c1,1 1.692535,2.186005 3,4c0.826904,1.147278 3.186005,2.692535 5,4c1.147278,0.826904 2.61731,3.076111 3,4c0.541199,1.306549 1.692535,1.186005 3,3c1.653809,2.294525 3,3 4,4c2,2 2.076111,2.61731 3,3c2.613129,1.082397 2.692535,3.186005 4,5c1.653809,2.294525 2.714111,3.21167 5,6c0.896606,1.093658 3.173096,2.852722 4,4c1.307465,1.813995 1,2 1,3c0,1 1,1 1,2c0,2 -1,3 -2,5c-1,2 -1.877655,4.06601 -3,6c-1.809723,3.118469 -2.190277,4.881531 -4,8c-2.24469,3.867981 -2.569519,6.132996 -4,10c-0.775787,2.097168 -2.173096,4.852722 -3,6c-1.307465,1.813995 -1,3 -1,4c0,0 -0.013641,0.329926 -4,0c-6.062042,-0.501709 -12,-1 -21,-1c-8,0 -16,0 -22,0c-6,0 -11,0 -16,0c-9,0 -15,0 -21,0c-8,0 -14,0 -20,0c-8,0 -13.907791,0.496216 -18,1c-6.947556,0.855286 -11.034073,0.310242 -18,1c-5.074203,0.502441 -9.946716,1.498749 -17,2c-4.987427,0.354431 -10.016907,0.903381 -16,2c-5.015472,0.91925 -8.937958,1.498291 -15,2c-6.976151,0.577362 -11,1 -15,1c-4,0 -11,0 -13,0c-1,0 -1.839813,-0.012909 -2,-1c-0.506546,-3.121429 -3.095444,-5.977356 -4,-10c-1.118668,-4.974792 -1,-8 -2,-11c-1,-3 -1.234634,-5.152252 -2,-7c-0.541199,-1.306549 -2.486252,-2.823761 -3,-5c-0.229752,-0.973236 -1,-3 -2,-4c-2,-2 -2.881516,-3.190277 -6,-5c-1.93399,-1.122345 -4.186005,-2.692535 -6,-4c-1.14727,-0.826904 -3,-2 -5,-3l-1,-1l-1,-1l-1,0" id="svg_40" />
 </g>
</svg>
