<?xml version="1.0" encoding="utf-8"?>
<!-- Generator: Adobe Illustrator 21.0.2, SVG Export Plug-In . SVG Version: 6.00 Build 0)  -->
<!DOCTYPE svg PUBLIC "-//W3C//DTD SVG 1.1//EN" "http://www.w3.org/Graphics/SVG/1.1/DTD/svg11.dtd">
<svg version="1.1" xmlns="http://www.w3.org/2000/svg" xmlns:xlink="http://www.w3.org/1999/xlink" x="0px" y="0px" width="36.8px"
	 height="36px" viewBox="0 0 36.8 36" style="enable-background:new 0 0 36.8 36;" xml:space="preserve">
<g id="Layer_2_1_">
	<g id="Layer_2_2_">
		<g id="N700_1_">
			<path fill="#0747a6" d="M30.2,13.5c-0.6,0-1.2,0.1-1.7,0.3C27.4,8.2,22,4.6,16.5,5.7c-4.1,0.8-7.3,4-8.1,8.1
				c-0.6-0.2-1.2-0.3-1.8-0.3c-3.5,0-6.3,2.8-6.3,6.3c0,3.5,2.8,6.3,6.3,6.3h1.2c0-0.2,0-0.3,0-0.5c0.1-2.9,2.6-5.1,5.5-5
				c0.7,0,1.5,0.1,2.1,0.4c1-3,3.8-5,7-5c3.4-0.1,6.4,2.2,7.2,5.5h0.1c2,0,3.7,1.3,4.3,3.1c2.7-2.2,3-6.2,0.8-8.8
				C33.7,14.3,32,13.5,30.2,13.5L30.2,13.5z"/>
			<path style="opacity:0.5;fill:#0747a6;enable-background:new    ;" d="M34.4,26c0-2.5-2-4.6-4.6-4.6h-0.1c-0.8-3.3-3.8-5.6-7.2-5.5c-3.2,0-6,2-7,5c-0.7-0.3-1.4-0.4-2.1-0.4
				c-2.9-0.1-5.3,2.1-5.5,5s-2.6,5.1-5.5,5h27.4h0.3C32.5,30.4,34.4,28.4,34.4,26z"/>
		</g>
	</g>
</g>
</svg>
