<?xml version="1.0" encoding="utf-8"?>
<!-- Generator: Adobe Illustrator 21.0.2, SVG Export Plug-In . SVG Version: 6.00 Build 0)  -->
<!DOCTYPE svg PUBLIC "-//W3C//DTD SVG 1.1//EN" "http://www.w3.org/Graphics/SVG/1.1/DTD/svg11.dtd">
<svg version="1.1" xmlns="http://www.w3.org/2000/svg" xmlns:xlink="http://www.w3.org/1999/xlink" x="0px" y="0px" width="36.8px"
	 height="36px" viewBox="0 0 36.8 36" style="enable-background:new 0 0 36.8 36;" xml:space="preserve">
<g id="Layer_1">
	<g id="Layer_2">
		<g id="N700">
			<path fill="#0747a6" d="M29.9,2.7H6.9c-1.1,0-2,0.9-2,2c0,0,0,0,0,0v6.1H32V4.8C32,3.7,31.1,2.7,29.9,2.7z M8.4,8.3
				c-0.8,0-1.5-0.7-1.5-1.5c0-0.8,0.7-1.5,1.5-1.5c0.8,0,1.5,0.7,1.5,1.5S9.3,8.3,8.4,8.3L8.4,8.3z M12.5,7.6
				c-0.4,0-0.8-0.3-0.8-0.8c0-0.4,0.3-0.8,0.8-0.8c0.4,0,0.8,0.3,0.8,0.8l0,0C13.2,7.2,12.9,7.6,12.5,7.6z M15,7.6
				c-0.4,0-0.8-0.3-0.8-0.8c0-0.4,0.3-0.8,0.8-0.8c0.4,0,0.8,0.3,0.8,0.8l0,0C15.8,7.2,15.4,7.6,15,7.6z M27.3,8.8h-0.8V4.8h0.8V8.8
				z M29.3,8.8h-0.8V4.8h0.8V8.8z"/>
			<path fill="#0747a6" d="M4.9,13.1v9.8H32v-9.8H4.9z M8.4,19.5c-0.8,0-1.5-0.7-1.5-1.5c0-0.8,0.7-1.5,1.5-1.5s1.5,0.7,1.5,1.5
				c0,0,0,0,0,0C9.9,18.8,9.3,19.5,8.4,19.5z M12.5,18.8c-0.4,0-0.8-0.3-0.8-0.8s0.3-0.8,0.8-0.8s0.8,0.3,0.8,0.8l0,0
				C13.2,18.4,12.9,18.8,12.5,18.8z M15,18.8c-0.4,0-0.8-0.3-0.8-0.8s0.3-0.8,0.8-0.8c0.4,0,0.8,0.3,0.8,0.8l0,0
				C15.8,18.4,15.4,18.8,15,18.8z M27.3,20h-0.8V16h0.8V20z M29.3,20h-0.8V16h0.8V20z"/>
			<path fill="#0747a6" d="M4.9,25.1v6.1c0,1.1,0.9,2,2,2c0,0,0,0,0,0h23.1c1.1,0,2-0.9,2-2l0,0v-6.1H4.9z M8.4,30.7
				c-0.8,0-1.5-0.7-1.5-1.5c0-0.8,0.7-1.5,1.5-1.5c0.8,0,1.5,0.7,1.5,1.5C9.9,30,9.3,30.7,8.4,30.7C8.4,30.7,8.4,30.7,8.4,30.7z
				 M12.5,29.9c-0.4,0-0.8-0.3-0.8-0.8s0.3-0.8,0.8-0.8s0.8,0.3,0.8,0.8l0,0C13.2,29.6,12.9,29.9,12.5,29.9z M15,29.9
				c-0.4,0-0.8-0.3-0.8-0.8s0.3-0.8,0.8-0.8c0.4,0,0.8,0.3,0.8,0.8l0,0C15.8,29.6,15.4,29.9,15,29.9z M27.3,31.2h-0.8v-4.1h0.8V31.2
				z M29.3,31.2h-0.8v-4.1h0.8V31.2z"/>
			<polygon style="opacity:0.5;fill:#0747a6;enable-background:new    ;" points="31.2,12 32,10.9 4.9,10.9 5.6,12 4.9,13.1 32,13.1 			"/>
			<polygon style="opacity:0.5;fill:#0747a6;enable-background:new    ;" points="31.2,24 32,22.9 4.9,22.9 5.6,24 4.9,25.1 32,25.1 			"/>
		</g>
	</g>
</g>
</svg>
