<svg width="24" height="24" fill="#fff" viewBox="0 0 512 512" xmlns="http://www.w3.org/2000/svg">

 <g>
  <title>background</title>
  <rect fill="none" id="canvas_background" height="402" width="582" y="-1" x="-1"/>
 </g>
 <g>
  <title>Layer 1</title>
  <g id="svg_1">
   <g id="svg_2">
    <path id="svg_3" d="m504.981,213.858388c-6.048,-5.163 -14.583,-6.251 -21.736,-2.769l-109.444,53.28l-102.692,-118.402c-3.798,-4.38 -9.311,-6.896 -15.109,-6.896c-5.798,0 -11.31,2.516 -15.109,6.896l-102.692,118.401l-109.444,-53.28c-7.153,-3.481 -15.687,-2.394 -21.737,2.769c-6.05,5.163 -8.466,13.421 -6.153,21.031l76,250c2.561,8.425 10.33,14.183 19.135,14.183l320,0c8.804,0 16.574,-5.758 19.134,-14.182l76,-250c2.314,-7.61 -0.102,-15.868 -6.153,-21.031zm-103.806,245.213l-290.352,0l-58.351,-191.948l82.022,39.931c8.144,3.964 17.93,1.962 23.863,-4.878l97.643,-112.58l97.644,112.58c5.932,6.841 15.721,8.841 23.862,4.878l82.022,-39.931l-58.353,191.948z"/>
   </g>
  </g>
  <g stroke="null" id="svg_10">
   <g stroke="null" transform="matrix(1.8326051624997797,0,0,1.8326051624997797,12.451612109829924,22.32042396199139) " id="svg_7">
    <g stroke="null" id="svg_8">
     <path stroke="null" id="svg_9" d="m8.179253,23.694709a14.246,14.246 0 0 1 14.131,14.322a2,2 0 0 0 4,0a14.246,14.246 0 0 1 14.13,-14.326a2,2 0 0 0 0,-4a14.245,14.245 0 0 1 -14.13,-14.326a2,2 0 0 0 -4,0a14.245,14.245 0 0 1 -14.131,14.33a2,2 0 1 0 0,4z"/>
    </g>
   </g>
  </g>
  <g stroke="null" id="svg_14">
   <g stroke="null" transform="matrix(1.8326051624997797,0,0,1.8326051624997797,12.451612109829924,22.32042396199139) " id="svg_13">
    <g stroke="null" id="svg_12">
     <path stroke="null" id="svg_11" d="m42.010871,97.906007a14.246,14.246 0 0 1 14.131,14.322a2,2 0 0 0 4,0a14.246,14.246 0 0 1 14.13,-14.326a2,2 0 0 0 0,-4a14.245,14.245 0 0 1 -14.13,-14.326a2,2 0 0 0 -4,0a14.245,14.245 0 0 1 -14.131,14.33a2,2 0 1 0 0,4z"/>
    </g>
   </g>
  </g>
  <g stroke="null" id="svg_18">
   <g stroke="null" transform="matrix(1.8326051624997797,0,0,1.8326051624997797,12.451612109829924,22.32042396199139) " id="svg_17">
    <g stroke="null" id="svg_16">
     <path stroke="null" id="svg_15" d="m78.570853,47.704251a14.246,14.246 0 0 1 14.131,14.322a2,2 0 0 0 4,0a14.246,14.246 0 0 1 14.13,-14.326a2,2 0 0 0 0,-4a14.245,14.245 0 0 1 -14.13,-14.326a2,2 0 0 0 -4,0a14.245,14.245 0 0 1 -14.131,14.33a2,2 0 1 0 0,4z"/>
    </g>
   </g>
  </g>
  <g stroke="null" id="svg_22">
   <g stroke="null" transform="matrix(1.8326051624997797,0,0,1.8326051624997797,12.451612109829924,22.32042396199139) " id="svg_21">
    <g stroke="null" id="svg_20">
     <path stroke="null" id="svg_19" d="m157.147516,68.439757a14.246,14.246 0 0 1 14.131,14.322a2,2 0 0 0 4,0a14.246,14.246 0 0 1 14.13,-14.326a2,2 0 0 0 0,-4a14.245,14.245 0 0 1 -14.13,-14.326a2,2 0 0 0 -4,0a14.245,14.245 0 0 1 -14.131,14.33a2,2 0 1 0 0,4z"/>
    </g>
   </g>
  </g>
  <g stroke="null" id="svg_26">
   <g stroke="null" transform="matrix(1.8326051624997797,0,0,1.8326051624997797,12.451612109829924,22.32042396199139) " id="svg_25">
    <g stroke="null" id="svg_24">
     <path stroke="null" id="svg_23" d="m194.253167,26.968743a14.246,14.246 0 0 1 14.131,14.322a2,2 0 0 0 4,0a14.246,14.246 0 0 1 14.13,-14.326a2,2 0 0 0 0,-4a14.245,14.245 0 0 1 -14.13,-14.326a2,2 0 0 0 -4,0a14.245,14.245 0 0 1 -14.131,14.33a2,2 0 1 0 0,4z"/>
    </g>
   </g>
  </g>
  <g stroke="null" id="svg_30">
   <g stroke="null" transform="matrix(1.8326051624997797,0,0,1.8326051624997797,12.451612109829924,22.32042396199139) " id="svg_29">
    <g stroke="null" id="svg_28">
     <path stroke="null" id="svg_27" d="m221.536721,89.175267a14.246,14.246 0 0 1 14.131,14.322a2,2 0 0 0 4,0a14.246,14.246 0 0 1 14.13,-14.326a2,2 0 0 0 0,-4a14.245,14.245 0 0 1 -14.13,-14.326a2,2 0 0 0 -4,0a14.245,14.245 0 0 1 -14.131,14.33a2,2 0 1 0 0,4z"/>
    </g>
   </g>
  </g>
 </g>
</svg>
